<?xml version="1.0" encoding="UTF-8" standalone="no"?>
<!DOCTYPE svg PUBLIC "-//W3C//DTD SVG 1.1//EN"
 "http://www.w3.org/Graphics/SVG/1.1/DTD/svg11.dtd">
<!-- Generated by graphviz version 2.43.0 (0)
 -->
<!-- Title: G Pages: 1 -->
<svg width="129px" height="237px"
 viewBox="0.00 0.00 370.00 677.00" xmlns="http://www.w3.org/2000/svg" xmlns:xlink="http://www.w3.org/1999/xlink">
<g id="graph0" class="graph" transform=" rotate(0) translate(4 673)">
<title>G</title>
<polygon fill="white" stroke="transparent" points="-4,4 -4,-673 366,-673 366,4 -4,4"/>
<!-- 0 -->
<g id="node1" class="node">
<title>0</title>
<ellipse fill="none" stroke="black" cx="43" cy="-414.5" rx="43" ry="14.5"/>
<text text-anchor="middle" x="43" y="-417.5" font-family="Times,serif" font-size="10.00">&#39;cancer&#39; </text>
<text text-anchor="middle" x="43" y="-406.5" font-family="Times,serif" font-size="10.00">read=[0]</text>
</g>
<!-- 1 -->
<g id="node2" class="node">
<title>1</title>
<ellipse fill="#d3e9b7" stroke="black" cx="43" cy="-494.5" rx="43" ry="14.5"/>
<text text-anchor="middle" x="43" y="-497.5" font-family="Times,serif" font-size="10.00">keyword_op</text>
<text text-anchor="middle" x="43" y="-486.5" font-family="Times,serif" font-size="10.00">read=[0]</text>
</g>
<!-- 1&#45;&gt;0 -->
<g id="edge1" class="edge">
<title>1&#45;&gt;0</title>
<path fill="none" stroke="black" d="M43,-479.91C43,-468.8 43,-452.8 43,-439.53"/>
<polygon fill="black" stroke="black" points="46.5,-439.19 43,-429.19 39.5,-439.19 46.5,-439.19"/>
<text text-anchor="middle" x="72.5" y="-450.8" font-family="Times,serif" font-size="14.00">write=0</text>
</g>
<!-- 2 -->
<g id="node3" class="node">
<title>2</title>
<ellipse fill="none" stroke="black" cx="95" cy="-94.5" rx="43" ry="14.5"/>
<text text-anchor="middle" x="95" y="-97.5" font-family="Times,serif" font-size="10.00">&#39;age&#39; ; 0 </text>
<text text-anchor="middle" x="95" y="-86.5" font-family="Times,serif" font-size="10.00"> read=[0,1,2]</text>
</g>
<!-- 3 -->
<g id="node4" class="node">
<title>3</title>
<ellipse fill="#febbb1" stroke="black" cx="95" cy="-174.5" rx="43" ry="14.5"/>
<text text-anchor="middle" x="95" y="-177.5" font-family="Times,serif" font-size="10.00">name_op</text>
<text text-anchor="middle" x="95" y="-166.5" font-family="Times,serif" font-size="10.00">read=[0,1,2]</text>
</g>
<!-- 3&#45;&gt;2 -->
<g id="edge2" class="edge">
<title>3&#45;&gt;2</title>
<path fill="none" stroke="black" d="M95,-159.91C95,-148.8 95,-132.8 95,-119.53"/>
<polygon fill="black" stroke="black" points="98.5,-119.19 95,-109.19 91.5,-119.19 98.5,-119.19"/>
<text text-anchor="middle" x="124.5" y="-130.8" font-family="Times,serif" font-size="14.00">write=2</text>
</g>
<!-- 4 -->
<g id="node5" class="node">
<title>4</title>
<ellipse fill="#b5c381" stroke="black" cx="95" cy="-254.5" rx="43" ry="14.5"/>
<text text-anchor="middle" x="95" y="-257.5" font-family="Times,serif" font-size="10.00">negation</text>
<text text-anchor="middle" x="95" y="-246.5" font-family="Times,serif" font-size="10.00">read=[0,1,2]</text>
</g>
<!-- 4&#45;&gt;3 -->
<g id="edge3" class="edge">
<title>4&#45;&gt;3</title>
<path fill="none" stroke="black" d="M95,-239.91C95,-228.8 95,-212.8 95,-199.53"/>
<polygon fill="black" stroke="black" points="98.5,-199.19 95,-189.19 91.5,-199.19 98.5,-199.19"/>
<text text-anchor="middle" x="124.5" y="-210.8" font-family="Times,serif" font-size="14.00">write=2</text>
</g>
<!-- 5 -->
<g id="node6" class="node">
<title>5</title>
<ellipse fill="none" stroke="black" cx="199" cy="-14.5" rx="43" ry="14.5"/>
<text text-anchor="middle" x="199" y="-17.5" font-family="Times,serif" font-size="10.00">1.0 ; gt ; 50 </text>
<text text-anchor="middle" x="199" y="-6.5" font-family="Times,serif" font-size="10.00">read=[0,1,3,4]</text>
</g>
<!-- 6 -->
<g id="node7" class="node">
<title>6</title>
<ellipse fill="#bb85d5" stroke="black" cx="199" cy="-94.5" rx="43" ry="14.5"/>
<text text-anchor="middle" x="199" y="-97.5" font-family="Times,serif" font-size="10.00">percentile_op</text>
<text text-anchor="middle" x="199" y="-86.5" font-family="Times,serif" font-size="10.00">read=[0,1,3,4]</text>
</g>
<!-- 6&#45;&gt;5 -->
<g id="edge4" class="edge">
<title>6&#45;&gt;5</title>
<path fill="none" stroke="black" d="M199,-79.91C199,-68.8 199,-52.8 199,-39.53"/>
<polygon fill="black" stroke="black" points="202.5,-39.19 199,-29.19 195.5,-39.19 202.5,-39.19"/>
<text text-anchor="middle" x="228.5" y="-50.8" font-family="Times,serif" font-size="14.00">write=4</text>
</g>
<!-- 7 -->
<g id="node8" class="node">
<title>7</title>
<ellipse fill="#b5c381" stroke="black" cx="199" cy="-174.5" rx="43" ry="14.5"/>
<text text-anchor="middle" x="199" y="-177.5" font-family="Times,serif" font-size="10.00">negation</text>
<text text-anchor="middle" x="199" y="-166.5" font-family="Times,serif" font-size="10.00">read=[0,1,3,4]</text>
</g>
<!-- 7&#45;&gt;6 -->
<g id="edge5" class="edge">
<title>7&#45;&gt;6</title>
<path fill="none" stroke="black" d="M199,-159.91C199,-148.8 199,-132.8 199,-119.53"/>
<polygon fill="black" stroke="black" points="202.5,-119.19 199,-109.19 195.5,-119.19 202.5,-119.19"/>
<text text-anchor="middle" x="228.5" y="-130.8" font-family="Times,serif" font-size="14.00">write=4</text>
</g>
<!-- 8 -->
<g id="node9" class="node">
<title>8</title>
<ellipse fill="none" stroke="black" cx="303" cy="-94.5" rx="43" ry="14.5"/>
<text text-anchor="middle" x="303" y="-97.5" font-family="Times,serif" font-size="10.00">1.0 ; lt ; 30 </text>
<text text-anchor="middle" x="303" y="-86.5" font-family="Times,serif" font-size="10.00">read=[0,1,3]</text>
</g>
<!-- 9 -->
<g id="node10" class="node">
<title>9</title>
<ellipse fill="#bb85d5" stroke="black" cx="303" cy="-174.5" rx="43" ry="14.5"/>
<text text-anchor="middle" x="303" y="-177.5" font-family="Times,serif" font-size="10.00">percentile_op</text>
<text text-anchor="middle" x="303" y="-166.5" font-family="Times,serif" font-size="10.00">read=[0,1,3]</text>
</g>
<!-- 9&#45;&gt;8 -->
<g id="edge6" class="edge">
<title>9&#45;&gt;8</title>
<path fill="none" stroke="black" d="M303,-159.91C303,-148.8 303,-132.8 303,-119.53"/>
<polygon fill="black" stroke="black" points="306.5,-119.19 303,-109.19 299.5,-119.19 306.5,-119.19"/>
<text text-anchor="middle" x="332.5" y="-130.8" font-family="Times,serif" font-size="14.00">write=3</text>
</g>
<!-- 10 -->
<g id="node11" class="node">
<title>10</title>
<ellipse fill="#aaf5c8" stroke="black" cx="199" cy="-254.5" rx="43" ry="14.5"/>
<text text-anchor="middle" x="199" y="-257.5" font-family="Times,serif" font-size="10.00">disjunction</text>
<text text-anchor="middle" x="199" y="-246.5" font-family="Times,serif" font-size="10.00">read=[0,1,3]</text>
</g>
<!-- 10&#45;&gt;7 -->
<g id="edge7" class="edge">
<title>10&#45;&gt;7</title>
<path fill="none" stroke="black" d="M199,-239.91C199,-228.8 199,-212.8 199,-199.53"/>
<polygon fill="black" stroke="black" points="202.5,-199.19 199,-189.19 195.5,-199.19 202.5,-199.19"/>
<text text-anchor="middle" x="228.5" y="-210.8" font-family="Times,serif" font-size="14.00">write=3</text>
</g>
<!-- 10&#45;&gt;9 -->
<g id="edge8" class="edge">
<title>10&#45;&gt;9</title>
<path fill="none" stroke="black" d="M225.45,-243.02C237.25,-237.68 250.95,-230.5 262,-222 271.21,-214.91 279.95,-205.53 286.97,-197.05"/>
<polygon fill="black" stroke="black" points="289.9,-198.99 293.38,-188.99 284.41,-194.64 289.9,-198.99"/>
<text text-anchor="middle" x="307.5" y="-210.8" font-family="Times,serif" font-size="14.00">write=3</text>
</g>
<!-- 11 -->
<g id="node12" class="node">
<title>11</title>
<ellipse fill="#c0b1f5" stroke="black" cx="147" cy="-334.5" rx="43" ry="14.5"/>
<text text-anchor="middle" x="147" y="-337.5" font-family="Times,serif" font-size="10.00">conjunction</text>
<text text-anchor="middle" x="147" y="-326.5" font-family="Times,serif" font-size="10.00">read=[0,1]</text>
</g>
<!-- 11&#45;&gt;4 -->
<g id="edge9" class="edge">
<title>11&#45;&gt;4</title>
<path fill="none" stroke="black" d="M130.03,-321.12C123.69,-315.81 116.85,-309.18 112,-302 107.32,-295.07 103.74,-286.68 101.1,-278.95"/>
<polygon fill="black" stroke="black" points="104.43,-277.89 98.16,-269.35 97.74,-279.93 104.43,-277.89"/>
<text text-anchor="middle" x="141.5" y="-290.8" font-family="Times,serif" font-size="14.00">write=1</text>
</g>
<!-- 11&#45;&gt;10 -->
<g id="edge10" class="edge">
<title>11&#45;&gt;10</title>
<path fill="none" stroke="black" d="M157.61,-320.25C161.91,-314.71 166.83,-308.14 171,-302 176.19,-294.35 181.52,-285.74 186.11,-278.02"/>
<polygon fill="black" stroke="black" points="189.26,-279.57 191.29,-269.17 183.22,-276.03 189.26,-279.57"/>
<text text-anchor="middle" x="209.5" y="-290.8" font-family="Times,serif" font-size="14.00">write=1</text>
</g>
<!-- 12 -->
<g id="node13" class="node">
<title>12</title>
<ellipse fill="#f78e95" stroke="black" cx="147" cy="-414.5" rx="43" ry="14.5"/>
<text text-anchor="middle" x="147" y="-417.5" font-family="Times,serif" font-size="10.00">col_op</text>
<text text-anchor="middle" x="147" y="-406.5" font-family="Times,serif" font-size="10.00">read=[0,1]</text>
</g>
<!-- 12&#45;&gt;11 -->
<g id="edge11" class="edge">
<title>12&#45;&gt;11</title>
<path fill="none" stroke="black" d="M147,-399.91C147,-388.8 147,-372.8 147,-359.53"/>
<polygon fill="black" stroke="black" points="150.5,-359.19 147,-349.19 143.5,-359.19 150.5,-359.19"/>
<text text-anchor="middle" x="176.5" y="-370.8" font-family="Times,serif" font-size="14.00">write=1</text>
</g>
<!-- 13 -->
<g id="node14" class="node">
<title>13</title>
<ellipse fill="#b5c381" stroke="black" cx="147" cy="-494.5" rx="43" ry="14.5"/>
<text text-anchor="middle" x="147" y="-497.5" font-family="Times,serif" font-size="10.00">negation</text>
<text text-anchor="middle" x="147" y="-486.5" font-family="Times,serif" font-size="10.00">read=[0,1]</text>
</g>
<!-- 13&#45;&gt;12 -->
<g id="edge12" class="edge">
<title>13&#45;&gt;12</title>
<path fill="none" stroke="black" d="M147,-479.91C147,-468.8 147,-452.8 147,-439.53"/>
<polygon fill="black" stroke="black" points="150.5,-439.19 147,-429.19 143.5,-439.19 150.5,-439.19"/>
<text text-anchor="middle" x="176.5" y="-450.8" font-family="Times,serif" font-size="14.00">write=1</text>
</g>
<!-- 14 -->
<g id="node15" class="node">
<title>14</title>
<ellipse fill="#c0b1f5" stroke="black" cx="95" cy="-574.5" rx="43" ry="14.5"/>
<text text-anchor="middle" x="95" y="-577.5" font-family="Times,serif" font-size="10.00">conjunction</text>
<text text-anchor="middle" x="95" y="-566.5" font-family="Times,serif" font-size="10.00">read=[0]</text>
</g>
<!-- 14&#45;&gt;1 -->
<g id="edge13" class="edge">
<title>14&#45;&gt;1</title>
<path fill="none" stroke="black" d="M78.03,-561.12C71.69,-555.81 64.85,-549.18 60,-542 55.32,-535.07 51.74,-526.68 49.1,-518.95"/>
<polygon fill="black" stroke="black" points="52.43,-517.89 46.16,-509.35 45.74,-519.93 52.43,-517.89"/>
<text text-anchor="middle" x="89.5" y="-530.8" font-family="Times,serif" font-size="14.00">write=0</text>
</g>
<!-- 14&#45;&gt;13 -->
<g id="edge14" class="edge">
<title>14&#45;&gt;13</title>
<path fill="none" stroke="black" d="M105.61,-560.25C109.91,-554.71 114.83,-548.14 119,-542 124.19,-534.35 129.52,-525.74 134.11,-518.02"/>
<polygon fill="black" stroke="black" points="137.26,-519.57 139.29,-509.17 131.22,-516.03 137.26,-519.57"/>
<text text-anchor="middle" x="157.5" y="-530.8" font-family="Times,serif" font-size="14.00">write=0</text>
</g>
<!-- 15 -->
<g id="node16" class="node">
<title>15</title>
<ellipse fill="#90b986" stroke="black" cx="95" cy="-654.5" rx="43" ry="14.5"/>
<text text-anchor="middle" x="95" y="-657.5" font-family="Times,serif" font-size="10.00">query</text>
<text text-anchor="middle" x="95" y="-646.5" font-family="Times,serif" font-size="10.00">read=[0]</text>
</g>
<!-- 15&#45;&gt;14 -->
<g id="edge15" class="edge">
<title>15&#45;&gt;14</title>
<path fill="none" stroke="black" d="M95,-639.91C95,-628.8 95,-612.8 95,-599.53"/>
<polygon fill="black" stroke="black" points="98.5,-599.19 95,-589.19 91.5,-599.19 98.5,-599.19"/>
<text text-anchor="middle" x="124.5" y="-610.8" font-family="Times,serif" font-size="14.00">write=0</text>
</g>
</g>
</svg>
