<?xml version="1.0" encoding="UTF-8" standalone="no"?>
<!DOCTYPE svg PUBLIC "-//W3C//DTD SVG 1.1//EN"
 "http://www.w3.org/Graphics/SVG/1.1/DTD/svg11.dtd">
<!-- Generated by graphviz version 2.43.0 (0)
 -->
<!-- Title: G Pages: 1 -->
<svg width="300px" height="315px"
 viewBox="0.00 0.00 858.79 899.66" xmlns="http://www.w3.org/2000/svg" xmlns:xlink="http://www.w3.org/1999/xlink">
<g id="graph0" class="graph" transform=" rotate(0) translate(4 895.66)">
<title>G</title>
<polygon fill="white" stroke="transparent" points="-4,4 -4,-895.66 854.79,-895.66 854.79,4 -4,4"/>
<!-- 0 -->
<g id="node1" class="node">
<title>0</title>
<ellipse fill="none" stroke="black" cx="139.3" cy="-550.57" rx="139.1" ry="26.74"/>
<text text-anchor="middle" x="139.3" y="-554.37" font-family="Times,serif" font-size="14.00">Token(&#39;Value&#39;, &quot;&#39;cancer&#39;&quot;) </text>
<text text-anchor="middle" x="139.3" y="-539.37" font-family="Times,serif" font-size="14.00">read=[0]</text>
</g>
<!-- 1 -->
<g id="node2" class="node">
<title>1</title>
<ellipse fill="#d3e9b7" stroke="black" cx="173.3" cy="-655.31" rx="71.34" ry="26.74"/>
<text text-anchor="middle" x="173.3" y="-659.11" font-family="Times,serif" font-size="14.00">keyword_op</text>
<text text-anchor="middle" x="173.3" y="-644.11" font-family="Times,serif" font-size="14.00">read=[0]</text>
</g>
<!-- 1&#45;&gt;0 -->
<g id="edge1" class="edge">
<title>1&#45;&gt;0</title>
<path fill="none" stroke="black" d="M164.72,-628.39C160.57,-615.85 155.53,-600.62 151.03,-587.03"/>
<polygon fill="black" stroke="black" points="154.34,-585.88 147.88,-577.49 147.7,-588.08 154.34,-585.88"/>
<text text-anchor="middle" x="188.8" y="-599.24" font-family="Times,serif" font-size="14.00">write=0</text>
</g>
<!-- 2 -->
<g id="node3" class="node">
<title>2</title>
<ellipse fill="none" stroke="black" cx="209.3" cy="-131.61" rx="137.36" ry="26.74"/>
<text text-anchor="middle" x="209.3" y="-135.41" font-family="Times,serif" font-size="14.00">Token(&#39;Value&#39;, &quot;&#39;age&#39; ; 0&quot;)</text>
<text text-anchor="middle" x="209.3" y="-120.41" font-family="Times,serif" font-size="14.00">read=[0,1,2]</text>
</g>
<!-- 3 -->
<g id="node4" class="node">
<title>3</title>
<ellipse fill="#febbb1" stroke="black" cx="240.3" cy="-236.35" rx="75.82" ry="26.74"/>
<text text-anchor="middle" x="240.3" y="-240.15" font-family="Times,serif" font-size="14.00">name_op</text>
<text text-anchor="middle" x="240.3" y="-225.15" font-family="Times,serif" font-size="14.00">read=[0,1,2]</text>
</g>
<!-- 3&#45;&gt;2 -->
<g id="edge2" class="edge">
<title>3&#45;&gt;2</title>
<path fill="none" stroke="black" d="M232.48,-209.42C228.73,-197.01 224.19,-181.95 220.12,-168.46"/>
<polygon fill="black" stroke="black" points="223.36,-167.09 217.12,-158.53 216.66,-169.11 223.36,-167.09"/>
<text text-anchor="middle" x="256.8" y="-180.28" font-family="Times,serif" font-size="14.00">write=2</text>
</g>
<!-- 4 -->
<g id="node5" class="node">
<title>4</title>
<ellipse fill="#b5c381" stroke="black" cx="279.3" cy="-341.09" rx="75.82" ry="26.74"/>
<text text-anchor="middle" x="279.3" y="-344.89" font-family="Times,serif" font-size="14.00">negation</text>
<text text-anchor="middle" x="279.3" y="-329.89" font-family="Times,serif" font-size="14.00">read=[0,1,2]</text>
</g>
<!-- 4&#45;&gt;3 -->
<g id="edge3" class="edge">
<title>4&#45;&gt;3</title>
<path fill="none" stroke="black" d="M269.56,-314.43C264.77,-301.8 258.91,-286.39 253.71,-272.67"/>
<polygon fill="black" stroke="black" points="256.87,-271.15 250.05,-263.04 250.33,-273.63 256.87,-271.15"/>
<text text-anchor="middle" x="291.8" y="-285.02" font-family="Times,serif" font-size="14.00">write=2</text>
</g>
<!-- 5 -->
<g id="node6" class="node">
<title>5</title>
<ellipse fill="none" stroke="black" cx="450.3" cy="-26.87" rx="152.06" ry="26.74"/>
<text text-anchor="middle" x="450.3" y="-30.67" font-family="Times,serif" font-size="14.00">Token(&#39;Value&#39;, &#39;1.0 ; gt ; 50&#39;)</text>
<text text-anchor="middle" x="450.3" y="-15.67" font-family="Times,serif" font-size="14.00">read=[0,1,3,4]</text>
</g>
<!-- 6 -->
<g id="node7" class="node">
<title>6</title>
<ellipse fill="#bb85d5" stroke="black" cx="450.3" cy="-131.61" rx="85.62" ry="26.74"/>
<text text-anchor="middle" x="450.3" y="-135.41" font-family="Times,serif" font-size="14.00">percentile_op</text>
<text text-anchor="middle" x="450.3" y="-120.41" font-family="Times,serif" font-size="14.00">read=[0,1,3,4]</text>
</g>
<!-- 6&#45;&gt;5 -->
<g id="edge4" class="edge">
<title>6&#45;&gt;5</title>
<path fill="none" stroke="black" d="M450.3,-104.68C450.3,-92.4 450.3,-77.51 450.3,-64.12"/>
<polygon fill="black" stroke="black" points="453.8,-63.79 450.3,-53.79 446.8,-63.79 453.8,-63.79"/>
<text text-anchor="middle" x="479.8" y="-75.54" font-family="Times,serif" font-size="14.00">write=4</text>
</g>
<!-- 7 -->
<g id="node8" class="node">
<title>7</title>
<ellipse fill="#b5c381" stroke="black" cx="450.3" cy="-236.35" rx="85.62" ry="26.74"/>
<text text-anchor="middle" x="450.3" y="-240.15" font-family="Times,serif" font-size="14.00">negation</text>
<text text-anchor="middle" x="450.3" y="-225.15" font-family="Times,serif" font-size="14.00">read=[0,1,3,4]</text>
</g>
<!-- 7&#45;&gt;6 -->
<g id="edge5" class="edge">
<title>7&#45;&gt;6</title>
<path fill="none" stroke="black" d="M450.3,-209.42C450.3,-197.14 450.3,-182.25 450.3,-168.86"/>
<polygon fill="black" stroke="black" points="453.8,-168.53 450.3,-158.53 446.8,-168.53 453.8,-168.53"/>
<text text-anchor="middle" x="479.8" y="-180.28" font-family="Times,serif" font-size="14.00">write=4</text>
</g>
<!-- 8 -->
<g id="node9" class="node">
<title>8</title>
<ellipse fill="none" stroke="black" cx="702.3" cy="-131.61" rx="148.48" ry="26.74"/>
<text text-anchor="middle" x="702.3" y="-135.41" font-family="Times,serif" font-size="14.00">Token(&#39;Value&#39;, &#39;1.0 ; lt ; 30&#39;)</text>
<text text-anchor="middle" x="702.3" y="-120.41" font-family="Times,serif" font-size="14.00">read=[0,1,3]</text>
</g>
<!-- 9 -->
<g id="node10" class="node">
<title>9</title>
<ellipse fill="#bb85d5" stroke="black" cx="668.3" cy="-236.35" rx="79.81" ry="26.74"/>
<text text-anchor="middle" x="668.3" y="-240.15" font-family="Times,serif" font-size="14.00">percentile_op</text>
<text text-anchor="middle" x="668.3" y="-225.15" font-family="Times,serif" font-size="14.00">read=[0,1,3]</text>
</g>
<!-- 9&#45;&gt;8 -->
<g id="edge6" class="edge">
<title>9&#45;&gt;8</title>
<path fill="none" stroke="black" d="M676.88,-209.42C681.03,-196.89 686.07,-181.66 690.57,-168.07"/>
<polygon fill="black" stroke="black" points="693.9,-169.12 693.72,-158.53 687.26,-166.92 693.9,-169.12"/>
<text text-anchor="middle" x="716.8" y="-180.28" font-family="Times,serif" font-size="14.00">write=3</text>
</g>
<!-- 10 -->
<g id="node11" class="node">
<title>10</title>
<ellipse fill="#aaf5c8" stroke="black" cx="450.3" cy="-341.09" rx="75.82" ry="26.74"/>
<text text-anchor="middle" x="450.3" y="-344.89" font-family="Times,serif" font-size="14.00">disjunction</text>
<text text-anchor="middle" x="450.3" y="-329.89" font-family="Times,serif" font-size="14.00">read=[0,1,3]</text>
</g>
<!-- 10&#45;&gt;7 -->
<g id="edge7" class="edge">
<title>10&#45;&gt;7</title>
<path fill="none" stroke="black" d="M450.3,-314.16C450.3,-301.88 450.3,-286.99 450.3,-273.6"/>
<polygon fill="black" stroke="black" points="453.8,-273.27 450.3,-263.27 446.8,-273.27 453.8,-273.27"/>
<text text-anchor="middle" x="479.8" y="-285.02" font-family="Times,serif" font-size="14.00">write=3</text>
</g>
<!-- 10&#45;&gt;9 -->
<g id="edge8" class="edge">
<title>10&#45;&gt;9</title>
<path fill="none" stroke="black" d="M494.68,-319.18C529.22,-302.9 577.32,-280.23 614.13,-262.88"/>
<polygon fill="black" stroke="black" points="615.68,-266.02 623.24,-258.59 612.7,-259.69 615.68,-266.02"/>
<text text-anchor="middle" x="602.8" y="-285.02" font-family="Times,serif" font-size="14.00">write=3</text>
</g>
<!-- 11 -->
<g id="node12" class="node">
<title>11</title>
<ellipse fill="#c0b1f5" stroke="black" cx="363.3" cy="-445.83" rx="70.01" ry="26.74"/>
<text text-anchor="middle" x="363.3" y="-449.63" font-family="Times,serif" font-size="14.00">conjunction</text>
<text text-anchor="middle" x="363.3" y="-434.63" font-family="Times,serif" font-size="14.00">read=[0,1]</text>
</g>
<!-- 11&#45;&gt;4 -->
<g id="edge9" class="edge">
<title>11&#45;&gt;4</title>
<path fill="none" stroke="black" d="M342.97,-419.96C331.9,-406.43 318.08,-389.52 306.15,-374.93"/>
<polygon fill="black" stroke="black" points="308.78,-372.61 299.74,-367.09 303.36,-377.05 308.78,-372.61"/>
<text text-anchor="middle" x="356.8" y="-389.76" font-family="Times,serif" font-size="14.00">write=1</text>
</g>
<!-- 11&#45;&gt;10 -->
<g id="edge10" class="edge">
<title>11&#45;&gt;10</title>
<path fill="none" stroke="black" d="M384.36,-419.96C395.82,-406.43 410.13,-389.52 422.5,-374.93"/>
<polygon fill="black" stroke="black" points="425.34,-376.98 429.13,-367.09 420,-372.46 425.34,-376.98"/>
<text text-anchor="middle" x="441.8" y="-389.76" font-family="Times,serif" font-size="14.00">write=1</text>
</g>
<!-- 12 -->
<g id="node13" class="node">
<title>12</title>
<ellipse fill="#f78e95" stroke="black" cx="363.3" cy="-550.57" rx="66.44" ry="26.74"/>
<text text-anchor="middle" x="363.3" y="-554.37" font-family="Times,serif" font-size="14.00">col_op</text>
<text text-anchor="middle" x="363.3" y="-539.37" font-family="Times,serif" font-size="14.00">read=[0,1]</text>
</g>
<!-- 12&#45;&gt;11 -->
<g id="edge11" class="edge">
<title>12&#45;&gt;11</title>
<path fill="none" stroke="black" d="M363.3,-523.64C363.3,-511.36 363.3,-496.47 363.3,-483.08"/>
<polygon fill="black" stroke="black" points="366.8,-482.75 363.3,-472.75 359.8,-482.75 366.8,-482.75"/>
<text text-anchor="middle" x="392.8" y="-494.5" font-family="Times,serif" font-size="14.00">write=1</text>
</g>
<!-- 13 -->
<g id="node14" class="node">
<title>13</title>
<ellipse fill="#b5c381" stroke="black" cx="346.3" cy="-655.31" rx="66.44" ry="26.74"/>
<text text-anchor="middle" x="346.3" y="-659.11" font-family="Times,serif" font-size="14.00">negation</text>
<text text-anchor="middle" x="346.3" y="-644.11" font-family="Times,serif" font-size="14.00">read=[0,1]</text>
</g>
<!-- 13&#45;&gt;12 -->
<g id="edge12" class="edge">
<title>13&#45;&gt;12</title>
<path fill="none" stroke="black" d="M350.59,-628.39C352.64,-615.97 355.14,-600.91 357.37,-587.42"/>
<polygon fill="black" stroke="black" points="360.83,-587.93 359.01,-577.49 353.93,-586.78 360.83,-587.93"/>
<text text-anchor="middle" x="385.8" y="-599.24" font-family="Times,serif" font-size="14.00">write=1</text>
</g>
<!-- 14 -->
<g id="node15" class="node">
<title>14</title>
<ellipse fill="#c0b1f5" stroke="black" cx="251.3" cy="-760.05" rx="70.01" ry="26.74"/>
<text text-anchor="middle" x="251.3" y="-763.85" font-family="Times,serif" font-size="14.00">conjunction</text>
<text text-anchor="middle" x="251.3" y="-748.85" font-family="Times,serif" font-size="14.00">read=[0]</text>
</g>
<!-- 14&#45;&gt;1 -->
<g id="edge13" class="edge">
<title>14&#45;&gt;1</title>
<path fill="none" stroke="black" d="M232.22,-733.92C222.12,-720.61 209.57,-704.09 198.66,-689.71"/>
<polygon fill="black" stroke="black" points="201.29,-687.39 192.45,-681.54 195.71,-691.62 201.29,-687.39"/>
<text text-anchor="middle" x="246.8" y="-703.98" font-family="Times,serif" font-size="14.00">write=0</text>
</g>
<!-- 14&#45;&gt;13 -->
<g id="edge14" class="edge">
<title>14&#45;&gt;13</title>
<path fill="none" stroke="black" d="M274.05,-734.44C286.86,-720.59 303,-703.14 316.77,-688.24"/>
<polygon fill="black" stroke="black" points="319.51,-690.44 323.73,-680.72 314.37,-685.68 319.51,-690.44"/>
<text text-anchor="middle" x="334.8" y="-703.98" font-family="Times,serif" font-size="14.00">write=0</text>
</g>
<!-- 15 -->
<g id="node16" class="node">
<title>15</title>
<ellipse fill="#90b986" stroke="black" cx="251.3" cy="-864.79" rx="56.64" ry="26.74"/>
<text text-anchor="middle" x="251.3" y="-868.59" font-family="Times,serif" font-size="14.00">query</text>
<text text-anchor="middle" x="251.3" y="-853.59" font-family="Times,serif" font-size="14.00">read=[0]</text>
</g>
<!-- 15&#45;&gt;14 -->
<g id="edge15" class="edge">
<title>15&#45;&gt;14</title>
<path fill="none" stroke="black" d="M251.3,-837.87C251.3,-825.58 251.3,-810.69 251.3,-797.3"/>
<polygon fill="black" stroke="black" points="254.8,-796.97 251.3,-786.97 247.8,-796.97 254.8,-796.97"/>
<text text-anchor="middle" x="280.8" y="-808.72" font-family="Times,serif" font-size="14.00">write=0</text>
</g>
</g>
</svg>
