<?xml version="1.0" encoding="UTF-8"?>
<svg xmlns="http://www.w3.org/2000/svg" viewBox="0 0 306 204.95">
  <defs>
    <style>
      .cls-1 {
        stroke: #272525;
      }

      .cls-1, .cls-2, .cls-3, .cls-4, .cls-5, .cls-6 {
        stroke-miterlimit: 10;
      }

      .cls-1, .cls-2, .cls-3, .cls-6 {
        stroke-width: 2.5px;
      }

      .cls-1, .cls-7 {
        fill: #c3d144;
      }

      .cls-2 {
        stroke: #929496;
      }

      .cls-2, .cls-3, .cls-8, .cls-6 {
        fill: #fff;
      }

      .cls-9 {
        fill: #fcfbea;
      }

      .cls-10 {
        fill: #7c914c;
      }

      .cls-11 {
        fill: #b5dbe7;
      }

      .cls-3 {
        stroke: #a6a8aa;
      }

      .cls-4, .cls-12, .cls-5 {
        fill: none;
        stroke: #4f4f4f;
      }

      .cls-4, .cls-13 {
        opacity: .4;
      }

      .cls-4, .cls-5 {
        stroke-width: 1.23px;
      }

      .cls-12 {
        stroke-linejoin: round;
        stroke-width: 1.79px;
      }

      .cls-14 {
        fill: #8da558;
      }

      .cls-6 {
        stroke: #363636;
      }

      .cls-15 {
        fill: #272525;
      }
    </style>
  </defs>
  <g id="arrow">
    <path class="cls-8" d="M109.59,172.05c14.84,2.72,22.38.44,37.21,3.16,35.05-54.3,33.27-46.95,45.17-66.05,9.15-14.68,32.88-39.34,55.59-57.15-34.41-30.92-81.41-25.21-123.76-24.14-5.08,17.46-12.57,36.51-16.52,54.36-6.08,27.49-8.28,60.41,2.3,89.82Z"/>
    <path class="cls-1" d="M108.2,164.59c14.84,2.72,30.13,12.55,44.97,15.28,16.2-35.59,23.64-47.23,38.8-70.93,9.32-14.57,32.88-39.34,55.59-57.15-34.41-30.92-81.41-25.21-123.76-24.14-5.08,17.46-12.57,36.51-16.52,54.36-6.08,27.49-9.67,53.18.91,82.59Z"/>
    <g>
      <g>
        <path class="cls-10" d="M111.44,125.9c-.5,4.31-.8,8.62-.88,13,3.18-.26,6.3-.41,9.42-.38.77-4.87,1.64-9.66,2.62-14.39-3.69.55-7.4,1.22-11.16,1.76Z"/>
        <path class="cls-10" d="M110.56,138.91c-.06,2.91,0,5.86.16,8.83,2.84.15,5.45.31,7.89.54.4-3.29.85-6.52,1.37-9.75-3.12-.03-6.24.13-9.42.38Z"/>
        <path class="cls-10" d="M110.72,147.74c.18,3,.46,6.04.89,9.1h.02c2.16-.15,4.17-.26,6.07-.24.25-2.8.56-5.59.91-8.33-2.44-.23-5.05-.39-7.89-.54Z"/>
        <path class="cls-10" d="M111.64,156.84h-.02c.69,4.84,1.75,9.78,3.22,14.84.64.14,1.25.25,1.81.38l.13-.68c.18-5.01.51-9.93.93-14.79-1.9-.02-3.91.09-6.07.24Z"/>
        <path class="cls-10" d="M130.54,92.3c1.62-5.67,3.32-11.25,5.08-16.83,1.98-6.38,4.03-12.71,6.08-19.07,1.7-5.24,3.41-10.51,5.09-15.78-4.86.3-9.85.6-15,.81-4.07,16.39-12.11,37.01-15.31,53.75-2,10.51-3.97,20.59-5.04,30.72,3.76-.54,7.48-1.22,11.16-1.76,1.02-5.02,2.14-9.95,3.36-14.85,1.43-5.73,2.95-11.38,4.57-16.99Z"/>
        <path class="cls-8" d="M116.77,171.39l-.13.68c9.83,1.95,11.61,1.28,22.44,3.57,1.58-3.1,3.16-6.35,4.73-9.68l-1.93-1.02c-8.75-5.88-15.3-8.19-24.17-8.33-.42,4.86-.75,9.78-.93,14.79Z"/>
        <path class="cls-8" d="M117.71,156.6c8.87.14,15.42,2.44,24.17,8.33l1.93,1.02c1.54-3.26,3.05-6.62,4.59-10l-.99-.52c-10.11-4.38-17.74-6.19-28.8-7.15-.35,2.74-.65,5.53-.91,8.33Z"/>
        <path class="cls-9" d="M119.98,138.52c-.52,3.23-.97,6.46-1.37,9.75,11.06.96,18.69,2.77,28.8,7.15l.99.52h.02c1.46-3.26,2.98-6.57,4.49-9.88l-.75-.38c-11.45-5.37-21.68-7.15-32.19-7.16Z"/>
        <path class="cls-9" d="M119.98,138.52c10.51.01,20.74,1.8,32.19,7.16l.75.38c2.01-4.33,4.06-8.69,6.22-12.99l-.29-.15c-12.45-10.93-24.19-10.56-36.25-8.79-.99,4.73-1.85,9.52-2.62,14.39Z"/>
        <path class="cls-9" d="M125.96,109.29c-1.22,4.9-2.34,9.83-3.36,14.85,12.05-1.77,23.79-2.14,36.25,8.79l.29.15c2.84-5.71,5.82-11.31,9.06-16.6h-.02c-16.51-9.83-27.33-9.52-42.21-7.18Z"/>
        <path class="cls-9" d="M166.84,95.03c-11.98-4.63-21.52-5.23-36.3-2.73-1.62,5.61-3.14,11.26-4.57,16.99,14.87-2.34,25.7-2.65,42.21,7.18h.02c1.74-2.88,3.55-5.65,5.46-8.3,1.8-2.53,3.62-5.01,5.49-7.49-4.52-2.31-8.54-4.17-12.3-5.65Z"/>
        <path class="cls-14" d="M135.62,75.47c-1.77,5.58-3.46,11.17-5.08,16.83,14.78-2.5,24.33-1.9,36.3,2.73,3.53-6.72,6.41-11.91,10.08-18.41l.03-.1c-15.11-4.84-28.09-4.96-41.33-1.04Z"/>
        <path class="cls-9" d="M141.7,56.4c-2.05,6.35-4.1,12.68-6.08,19.07,13.24-3.92,26.22-3.8,41.33,1.04,5.14,1.66,10.5,3.87,16.24,6.64l.02.03c5.26-6.24,10.71-12.26,16.3-18.07-31.82-11.5-49.83-12.3-67.81-8.7Z"/>
        <path class="cls-14" d="M146.78,40.62c-1.68,5.27-3.38,10.54-5.09,15.78,17.97-3.59,35.99-2.8,67.81,8.7,4.44-4.63,8.98-9.12,13.56-13.48-27.73-13.74-50.27-12.53-76.28-11Z"/>
        <path class="cls-9" d="M176.92,76.62c-3.67,6.51-6.55,11.69-10.08,18.41,3.76,1.48,7.78,3.34,12.3,5.65,4.51-5.99,9.21-11.84,14.07-17.5l-.02-.03c-5.73-2.76-11.1-4.98-16.24-6.64l-.03.1Z"/>
      </g>
      <g>
        <path class="cls-12" d="M179.14,100.68c-1.87,2.48-3.69,4.96-5.49,7.49-1.9,2.66-3.71,5.43-5.46,8.31-3.24,5.3-6.22,10.89-9.06,16.6-2.15,4.3-4.21,8.66-6.22,12.99-1.51,3.31-3.03,6.62-4.49,9.88h-.02c-1.54,3.39-3.06,6.75-4.59,10-1.56,3.33-3.15,6.59-4.73,9.68-10.83-2.29-12.61-1.62-22.44-3.57-.56-.13-1.18-.24-1.81-.38-1.47-5.06-2.53-10-3.22-14.84-.43-3.07-.71-6.1-.89-9.1-.16-2.98-.22-5.92-.16-8.83.08-4.38.38-8.7.88-13,1.06-10.13,3.04-20.22,5.04-30.72,3.2-16.75,11.23-37.37,15.31-53.75,5.15-.21,10.14-.5,15-.81,26.02-1.53,48.55-2.74,76.28,11-4.58,4.36-9.12,8.85-13.56,13.48-5.59,5.81-11.04,11.83-16.3,18.07-4.86,5.66-9.56,11.51-14.07,17.5Z"/>
        <path class="cls-12" d="M141.88,164.93c-8.75-5.88-15.3-8.19-24.17-8.33-1.9-.02-3.91.09-6.07.24"/>
        <path class="cls-12" d="M147.42,155.42c-10.11-4.38-17.74-6.19-28.8-7.15-2.44-.23-5.05-.39-7.89-.54"/>
        <path class="cls-12" d="M152.17,145.69c-11.45-5.37-21.68-7.15-32.19-7.16-3.12-.03-6.24.13-9.42.38h-.05"/>
        <path class="cls-12" d="M168.17,116.47c-16.51-9.83-27.33-9.51-42.21-7.18-.17.02-.35.06-.52.08"/>
        <path class="cls-12" d="M179.14,100.68c-4.52-2.31-8.54-4.17-12.3-5.65-11.98-4.63-21.52-5.23-36.3-2.73-.05.02-.12.02-.18.04"/>
        <path class="cls-12" d="M193.19,83.15c-5.73-2.76-11.1-4.98-16.24-6.64-15.11-4.84-28.09-4.96-41.33-1.04"/>
        <path class="cls-12" d="M209.51,65.11c-31.82-11.5-49.83-12.3-67.81-8.7"/>
        <path class="cls-12" d="M146.78,40.62c-1.68,5.27-3.38,10.54-5.09,15.78-2.05,6.35-4.1,12.68-6.08,19.07-1.77,5.58-3.46,11.17-5.08,16.83-1.62,5.61-3.14,11.26-4.57,16.99-1.22,4.9-2.34,9.83-3.36,14.85-.99,4.73-1.85,9.52-2.62,14.39-.52,3.23-.97,6.46-1.37,9.75-.35,2.74-.65,5.53-.91,8.33-.42,4.86-.75,9.78-.93,14.79"/>
        <path class="cls-12" d="M176.92,76.62c-3.67,6.51-6.55,11.69-10.08,18.41,0,.03-.03.02-.03.05"/>
        <path class="cls-12" d="M158.85,132.93c-12.45-10.93-24.19-10.56-36.25-8.79-3.69.55-7.4,1.22-11.16,1.76-.05,0-.1.02-.15.02"/>
      </g>
    </g>
    <path class="cls-3" d="M127.5,168.08c7.97,6.98,13.05,10.54,21.03,17.52,18.69-9.01,22.48-10.76,38.98-19.78,20.16-11.02,39.77-17.26,62.06-22.31-10.52-30.73-38.75-41.55-64.36-56.24-8.69,8.48-21.86,17.76-29.99,26.88-12.53,14.05-24.51,32.71-27.71,53.92Z"/>
    <g class="cls-13">
      <g>
        <path class="cls-8" d="M136.03,154.16c-.88,1.83-1.68,3.74-2.42,5.7h.01c7.6,3.87,11.4,7.67,15.43,15.74l.08.14h.01c1.98-1.31,4-2.66,6.07-4.03-5.54-7.45-10.19-11.46-19.19-17.55Z"/>
        <path class="cls-8" d="M133.63,159.88c-1.17,3.1-2.15,6.39-2.91,9.92,6.05,5.58,5.47,4.91,11.53,10.49,2.22-1.44,4.52-2.96,6.89-4.55l-.08-.14c-4.03-8.06-7.83-11.87-15.43-15.73Z"/>
        <path class="cls-8" d="M172.02,109.58c-2.63,2.45-5.31,4.94-7.86,7.42,18.14,3.29,30.46,11.47,42.26,27.89v.02c4.69-1.9,9.39-3.67,14.18-5.2-12.85-15.58-32.15-28.18-48.58-30.14Z"/>
        <path class="cls-11" d="M183.01,98.94c-3.21,3.4-7.05,6.99-10.99,10.65,16.43,1.96,35.73,14.56,48.58,30.14,4.11-1.33,8.23-2.47,12.45-3.41-14.38-21.54-30.04-26.33-50.04-37.38Z"/>
      </g>
      <g>
        <path class="cls-5" d="M133.62,159.87c.74-1.97,1.54-3.87,2.42-5.7,1.79-3.79,3.86-7.3,6.13-10.68,1.37-2.07,2.83-4.09,4.36-6.07,1.94-2.58,3.99-5.1,6.1-7.66,1.26-1.53,2.56-3.06,3.85-4.61.47-.57.98-1.14,1.48-1.72,1.9-2.12,4.01-4.27,6.2-6.42,2.55-2.49,5.23-4.97,7.86-7.42,3.94-3.66,7.78-7.25,10.99-10.65,19.99,11.05,35.66,15.83,50.04,37.38-4.22.94-8.34,2.08-12.45,3.41-4.78,1.53-9.49,3.3-14.17,5.2-4.19,1.65-8.35,3.46-12.53,5.29-2.49,1.1-4.99,2.2-7.5,3.33-1.47.65-2.93,1.34-4.41,2.08-2.94,1.46-5.88,3.06-8.84,4.79-3.03,1.74-6.02,3.59-9,5.48-3.02,1.92-6.01,3.87-8.92,5.81-2.07,1.37-4.09,2.72-6.07,4.04h-.01c-2.37,1.58-4.68,3.1-6.89,4.54-6.05-5.58-5.47-4.91-11.53-10.49.76-3.53,1.74-6.82,2.91-9.92"/>
        <path class="cls-5" d="M149.06,175.6c-4.03-8.06-7.83-11.87-15.43-15.73h-.01"/>
        <path class="cls-5" d="M155.43,171.98l-.2-.26c-5.54-7.45-10.19-11.46-19.19-17.55h-.01"/>
        <path class="cls-5" d="M164.17,165.93s0-.02-.02-.03c-6.6-9.46-13.21-17.97-21.91-22.36"/>
        <path class="cls-5" d="M181.89,155.41c-5.9-11.75-15.15-19.73-29.26-25.65-.15-.06-.31-.12-.47-.19"/>
        <path class="cls-5" d="M193.9,150.22c-5.63-10.17-16.2-21.48-35.92-26.78"/>
        <path class="cls-5" d="M206.42,144.9c-11.8-16.42-24.12-24.6-42.26-27.89"/>
        <path class="cls-5" d="M220.6,139.72c-12.85-15.58-32.15-28.18-48.58-30.14"/>
        <path class="cls-5" d="M173.05,160.22c-9.98-16.85-20.59-20.49-26.52-22.8-.54-.21-1.05-.41-1.51-.61"/>
      </g>
    </g>
    <path class="cls-2" d="M117.11,102.3c-1.22-12.44-6.37-28.2-8.4-40.48-28.85-4.59-57.55-13.94-83.62,3.84,14.84,18.19,21.31,27.98,33.95,47.99,10.56,16.71,15.54,30.71,25.24,49.77,10.37-.49,13.48-.09,23.84-.58,9.66-18.92,10.87-41.4,8.99-60.55Z"/>
    <g class="cls-13">
      <g>
        <path class="cls-8" d="M109.37,143.19l.47.07c-.41,3.03-1.02,6.07-1.85,9.16h-.02c-8.29-1.74-10.66-.77-21.34,2.71l-.23.09c-1.14-3.05-2.32-6.22-3.51-9.42l.19-.09c8.88-2.48,15.45-3.41,26.27-2.52Z"/>
        <path class="cls-8" d="M107.98,152.42h.02c-.87,3.21-2,6.46-3.43,9.75-8.03.59-7.12.67-15.15,1.26-.97-2.61-1.97-5.37-3.01-8.21l.23-.09c10.67-3.48,13.05-4.45,21.34-2.71Z"/>
        <path class="cls-8" d="M105.97,85.85c.67,3.61,1.38,7.29,2.02,10.91-14.71-7.83-30.31-8.12-49.04-2.65-2.67-4.49-5.5-8.85-8.5-13.06,19.16-4.21,37.14-3.11,55.52,4.8Z"/>
        <path class="cls-11" d="M103.75,72.5c.51,4.13,1.33,8.67,2.21,13.35-18.38-7.9-36.36-9.01-55.52-4.8-2.56-3.64-5.25-7.18-8.07-10.61,23.85-8.03,39.08-1.85,61.38,2.05Z"/>
      </g>
      <g>
        <path class="cls-5" d="M65.8,106.31c1.32,2.48,2.58,4.97,3.81,7.51.4.82.81,1.68,1.19,2.54,1.55,3.29,3.09,6.82,4.63,10.5,1.25,2.97,2.47,6.05,3.69,9.15,1.28,3.26,2.55,6.54,3.76,9.78h.02c1.19,3.2,2.38,6.37,3.51,9.42,1.03,2.85,2.04,5.6,3.01,8.21,8.03-.59,7.12-.67,15.15-1.26,1.42-3.29,2.55-6.54,3.43-9.75.83-3.09,1.43-6.13,1.85-9.16.36-2.57.59-5.15.7-7.71.18-3.04.18-6.09.1-9.14-.06-3.25-.24-6.55-.46-9.89-.14-2.06-.27-4.15-.42-6.26-.06-.85-.13-1.72-.22-2.58-.36-3.47-.92-7.16-1.56-10.91-.63-3.62-1.35-7.31-2.02-10.91-.88-4.68-1.7-9.22-2.21-13.35-22.3-3.9-37.52-10.08-61.38-2.05,2.82,3.43,5.51,6.97,8.07,10.61,3,4.21,5.83,8.57,8.5,13.06,2.42,3.97,4.69,8.03,6.86,12.19Z"/>
        <path class="cls-5" d="M86.64,155.13c10.67-3.48,13.05-4.45,21.34-2.71"/>
        <path class="cls-5" d="M83.09,145.7c8.88-2.48,15.45-3.41,26.27-2.52"/>
        <path class="cls-5" d="M79.44,135.88c10.72-3.35,21.28-2.39,30.76-.35"/>
        <path class="cls-5" d="M70.91,116.3c9.57-3.07,24.4-4.19,39.27.23"/>
        <path class="cls-5" d="M65.56,106.42c.09-.03.16-.08.25-.11,10.32-4.46,25.13-6.9,43.74,1.37"/>
        <path class="cls-5" d="M58.63,94.22c.1-.03.21-.05.31-.1,18.73-5.47,34.33-5.19,49.04,2.65"/>
        <path class="cls-5" d="M50.32,81.08s.09-.01.12-.03c19.16-4.21,37.14-3.11,55.52,4.8"/>
        <path class="cls-5" d="M75.73,126.72c15.99-3.58,28.51-1.86,34.9-.31.57.14,1.09.27,1.56.4"/>
      </g>
    </g>
    <g>
      <path class="cls-6" d="M95.24,172.23c12.87,15.83,35.51,17.7,50.58,4.17,15.06-13.53,16.84-37.32,3.97-53.16-12.87-15.83-35.51-17.7-50.58-4.17-15.06,13.53-16.84,37.32-3.97,53.16Z"/>
      <path class="cls-7" d="M106.51,162.18c9.62,11.83,26.54,13.23,37.79,3.12,11.26-10.11,12.58-27.89,2.97-39.72-9.62-11.83-26.54-13.23-37.79-3.12-11.26,10.11-12.58,27.89-2.97,39.72Z"/>
      <path class="cls-15" d="M121.3,147.04c5.31,6.54,14.66,7.31,20.88,1.72,6.22-5.58,6.95-15.41,1.64-21.95-5.31-6.54-14.66-7.31-20.88-1.72-6.22,5.58-6.95,15.41-1.64,21.95Z"/>
      <ellipse class="cls-8" cx="134.66" cy="127.74" rx="2.15" ry="2.26"/>
    </g>
  </g>
  <g id="Layer_3">
    <path class="cls-4" d="M55.92,67.19c6.13,9.62,12.05,19,19.82,34.63,5.12,10.29,10.54,22.65,12.54,34.63"/>
    <path class="cls-4" d="M192.28,103.85c-8.44,6.86-35.81,31.69-35.81,31.69"/>
  </g>
</svg>
