<?xml version="1.0" encoding="UTF-8"?>
<svg xmlns="http://www.w3.org/2000/svg" viewBox="0 0 183.36 59.68">
  <defs>
    <style>
      .cls-1 {
        fill: #7c914c;
      }

      .cls-2 {
        isolation: isolate;
      }

      .cls-3 {
        stroke: #363636;
        stroke-miterlimit: 10;
        stroke-width: .39px;
      }

      .cls-3, .cls-4 {
        fill: #fff;
      }

      .cls-5 {
        mix-blend-mode: screen;
      }

      .cls-6 {
        fill: #c3d144;
      }

      .cls-7 {
        fill: #272525;
      }
    </style>
  </defs>
  <g class="cls-2">
    <g id="Layer_3" data-name="Layer 3">
      <g class="cls-5">
        <path class="cls-6" d="M38.34,35.57h-9.82v11.16h-7.91v-29.49h19.16l.74,6.21h-11.99v5.91h9.08l.74,6.21Z"/>
        <path class="cls-1" d="M43.47,26.92c.75-.35,1.63-.67,2.63-.98,1-.3,2.07-.55,3.21-.74,1.15-.19,2.29-.28,3.45-.28,1.91,0,3.52.36,4.82,1.09,1.3.72,2.28,1.74,2.93,3.04.65,1.3.98,2.85.98,4.65v13.03h-3.82l-2.26-2.17c-.67.84-1.4,1.49-2.19,1.95-.8.46-1.64.69-2.54.69-2.66,0-4.65-.67-5.95-2-1.3-1.33-1.96-3.08-1.96-5.26,0-2.29.77-3.89,2.3-4.8,1.54-.91,3.52-1.37,5.95-1.37h2.52l-.04-.22c-.15-.78-.46-1.35-.96-1.69-.49-.35-1.07-.52-1.74-.52-.72,0-1.58.12-2.56.37-.99.25-1.88.54-2.69.89l-2.08-5.69ZM49.57,40.59c.13.22.3.39.52.52.22.13.45.2.72.2.46,0,.93-.1,1.39-.3.46-.2.93-.49,1.39-.87v-2h-2.43c-.52,0-.95.16-1.28.48-.33.32-.5.72-.5,1.22,0,.29.06.54.2.76Z"/>
        <path class="cls-1" d="M65.66,46.73v-21.07h7.91v21.07h-7.91Z"/>
        <path class="cls-1" d="M77.91,46.73v-21.07h4.69l1.39,2.17c.69-.44,1.5-.88,2.41-1.33.91-.45,1.89-.82,2.93-1.11,1.04-.29,2.13-.43,3.26-.43,1.79,0,3.25.35,4.37,1.06,1.11.71,1.94,1.68,2.47,2.91.54,1.23.8,2.63.8,4.19v13.6h-7.9v-12.86c0-.67-.16-1.25-.48-1.76s-.91-.76-1.78-.76c-.32,0-.73.07-1.24.2s-1.03.28-1.56.46-1.02.36-1.45.56v14.16h-7.91Z"/>
        <path class="cls-1" d="M117.05,16.54v8.85c-.07-.02-.13-.06-.2-.08-.85-.26-1.71-.39-2.58-.39-2.2,0-4.14.42-5.82,1.26-1.68.84-2.99,2.09-3.93,3.76-.94,1.67-1.41,3.76-1.41,6.28s.47,4.55,1.41,6.19,2.23,2.85,3.87,3.63,3.48,1.17,5.54,1.17c1.1,0,2.15-.19,3.15-.56.99-.37,1.89-.85,2.71-1.44l1.17,1.53h4v-30.67l-7.91.48ZM113.05,40.56c-.58-.38-1.02-.93-1.32-1.67-.31-.74-.46-1.64-.46-2.71s.16-2.03.48-2.8c.32-.77.75-1.35,1.28-1.76.54-.41,1.12-.61,1.76-.61.72,0,1.48.21,2.26.6v8.86c-.65.42-1.29.66-1.91.66-.81,0-1.51-.19-2.09-.56Z"/>
        <path class="cls-1" d="M137.03,38.18c.2.58.51,1.09.91,1.52.41.43.93.77,1.57,1,.64.23,1.4.35,2.3.35,1.27,0,2.4-.16,3.37-.48.97-.32,1.77-.64,2.41-.96l2.22,5.34c-.55.41-1.29.78-2.22,1.13-.93.35-1.95.62-3.08.83-1.13.2-2.29.3-3.48.3-2.4,0-4.56-.42-6.47-1.26-1.91-.84-3.41-2.08-4.5-3.71-1.08-1.64-1.63-3.64-1.63-6.02s.5-4.4,1.5-6.08c1-1.68,2.36-2.97,4.08-3.87,1.72-.9,3.64-1.35,5.76-1.35,2.26,0,4.13.5,5.62,1.5,1.49,1,2.61,2.33,3.35,4,.74,1.67,1.11,3.48,1.11,5.45v2.3h-12.81ZM142.29,34.27c0-.41-.09-.84-.28-1.3-.19-.46-.48-.86-.87-1.19s-.92-.5-1.59-.5c-.46,0-.91.14-1.35.41-.43.28-.77.64-1.02,1.09-.25.45-.37.95-.37,1.5h5.47Z"/>
        <path class="cls-1" d="M152.88,46.73v-21.02h3.95l1.91,2.56c.58-.41,1.27-.8,2.06-1.19.8-.39,1.63-.72,2.52-1,.88-.27,1.71-.41,2.5-.41l1.61,6.34c-.69,0-1.44.1-2.24.3-.8.2-1.58.48-2.35.83-.77.35-1.45.75-2.06,1.22v12.38h-7.91Z"/>
      </g>
      <g>
        <path class="cls-3" d="M65.38,20.76c2.03,2.49,5.59,2.79,7.97.66s2.65-5.88.63-8.37c-2.03-2.49-5.59-2.79-7.97-.66-2.37,2.13-2.65,5.88-.63,8.37Z"/>
        <path class="cls-6" d="M67.16,19.18c1.51,1.86,4.18,2.08,5.95.49,1.77-1.59,1.98-4.39.47-6.26-1.51-1.86-4.18-2.08-5.95-.49-1.77,1.59-1.98,4.39-.47,6.26Z"/>
        <path class="cls-7" d="M69.49,16.8c.84,1.03,2.31,1.15,3.29.27.98-.88,1.1-2.43.26-3.46-.84-1.03-2.31-1.15-3.29-.27-.98.88-1.1,2.43-.26,3.46Z"/>
        <ellipse class="cls-4" cx="71.59" cy="13.76" rx=".34" ry=".36"/>
      </g>
    </g>
    <g id="Layer_4" data-name="Layer 4">
      <path class="cls-1" d="M152.98,46.73v-21.02h3.95l1.91,2.56c.58-.41,1.27-.8,2.06-1.19.8-.39,1.63-.72,2.52-1,.88-.27,1.71-.41,2.5-.41l1.61,6.34c-.69,0-1.44.1-2.24.3-.8.2-1.58.48-2.35.83-.77.35-1.45.75-2.06,1.22v12.38h-7.91Z"/>
    </g>
  </g>
</svg>